<?xml version="1.0" standalone="no"?>
<svg viewBox="0 0 200 200" xmlns="http://www.w3.org/2000/svg">
  <path fill="#000000" d="M38,-63.2C50.4,-58.6,62.4,-50.8,69.1,-39.7C75.7,-28.7,76.9,-14.3,77.4,0.3C77.8,14.9,77.5,29.7,72.2,43.1C66.9,56.5,56.6,68.4,43.8,76.5C30.9,84.5,15.5,88.7,0.5,87.9C-14.5,87.1,-29,81.3,-42,73.3C-55,65.3,-66.4,55.1,-69.7,42.5C-72.9,29.9,-68,15,-67.7,0.2C-67.3,-14.6,-71.6,-29.2,-66.4,-38.5C-61.3,-47.8,-46.8,-51.9,-34.2,-56.4C-21.5,-60.8,-10.8,-65.8,1,-67.5C12.8,-69.3,25.6,-67.8,38,-63.2Z" transform="translate(100 100)" />
</svg>
